<?xml version="1.0" ?><svg enable-background="new 0 0 100 100" id="Layer_1" version="1.1" viewBox="0 0 100 100" xml:space="preserve" xmlns="http://www.w3.org/2000/svg" xmlns:xlink="http://www.w3.org/1999/xlink"><g><path d="M95,48.536v-2.785c0-11.378-9.257-20.634-20.634-20.634H56.531c-11.378,0-20.634,9.257-20.634,20.634v2.785   c0,0.54,0.438,0.978,0.978,0.978h0.266c-0.171,0.394-0.268,0.828-0.268,1.284v0.633c0,0.88,0.355,1.678,0.927,2.262   c-0.572,0.585-0.927,1.382-0.927,2.262v3.839c0,0.456,0.097,0.89,0.268,1.284h-0.266c-0.54,0-0.978,0.438-0.978,0.978v2.647   c0,5.613,4.566,10.179,10.179,10.179h38.745C90.434,74.883,95,70.316,95,64.704v-2.647c0-0.54-0.438-0.978-0.978-0.978h-0.266   c0.171-0.394,0.268-0.828,0.268-1.284v-3.839c0-0.88-0.355-1.678-0.927-2.262c0.572-0.585,0.927-1.382,0.927-2.262v-0.633   c0-0.456-0.097-0.89-0.268-1.284h0.266C94.562,49.515,95,49.077,95,48.536z M37.853,45.752c0-10.299,8.379-18.678,18.678-18.678   h17.835c10.299,0,18.678,8.379,18.678,18.678v1.807h-2.26H40.113h-2.26V45.752z M93.043,64.704c0,4.534-3.689,8.223-8.223,8.223   H46.075c-4.534,0-8.223-3.689-8.223-8.223v-1.668h2.26h50.671h2.26V64.704z M40.113,61.079c-0.708,0-1.284-0.576-1.284-1.284   v-3.839c0-0.708,0.576-1.284,1.284-1.284h50.671c0.708,0,1.284,0.576,1.284,1.284v3.839c0,0.708-0.576,1.284-1.284,1.284H40.113z    M92.068,50.799v0.633c0,0.708-0.576,1.284-1.284,1.284H40.113c-0.708,0-1.284-0.576-1.284-1.284v-0.633   c0-0.708,0.576-1.284,1.284-1.284h50.671C91.492,49.515,92.068,50.091,92.068,50.799z"/><path d="M42.956,42.086c0.287,0,0.571-0.126,0.764-0.367l0.372-0.464c0.338-0.422,0.269-1.037-0.152-1.375   c-0.422-0.337-1.037-0.269-1.375,0.152l-0.372,0.464c-0.338,0.422-0.269,1.037,0.152,1.375   C42.526,42.016,42.742,42.086,42.956,42.086z"/><path d="M59.408,43.428c0.287,0,0.571-0.126,0.764-0.366l0.372-0.464c0.338-0.422,0.27-1.037-0.151-1.375   c-0.421-0.337-1.037-0.269-1.375,0.151l-0.372,0.464c-0.338,0.422-0.27,1.037,0.151,1.375   C58.977,43.358,59.193,43.428,59.408,43.428z"/><path d="M43.499,65.255l-0.372,0.464c-0.338,0.422-0.27,1.037,0.151,1.375c0.181,0.145,0.396,0.215,0.611,0.215   c0.287,0,0.571-0.126,0.764-0.366l0.372-0.464c0.338-0.422,0.27-1.037-0.151-1.375C44.453,64.766,43.837,64.833,43.499,65.255z"/><path d="M69.331,65.255l-0.372,0.464c-0.338,0.422-0.269,1.037,0.152,1.375c0.181,0.144,0.396,0.214,0.611,0.214   c0.287,0,0.571-0.126,0.764-0.367l0.372-0.464c0.338-0.422,0.269-1.037-0.152-1.375C70.284,64.766,69.668,64.833,69.331,65.255z"/><path d="M55.328,68.401l-0.372,0.465c-0.337,0.422-0.268,1.037,0.153,1.375c0.181,0.144,0.396,0.214,0.61,0.214   c0.287,0,0.571-0.126,0.765-0.367l0.372-0.465c0.337-0.422,0.268-1.037-0.153-1.375C56.281,67.911,55.666,67.978,55.328,68.401z"/><path d="M82.99,68.169l-0.372,0.464c-0.338,0.422-0.269,1.037,0.152,1.375c0.181,0.144,0.396,0.214,0.611,0.214   c0.287,0,0.571-0.126,0.764-0.367l0.372-0.464c0.338-0.422,0.269-1.037-0.152-1.375C83.944,67.679,83.328,67.747,82.99,68.169z"/><path d="M85.029,37.628c0.287,0,0.571-0.126,0.764-0.366l0.372-0.464c0.338-0.422,0.27-1.037-0.151-1.375   c-0.421-0.337-1.037-0.269-1.375,0.151l-0.372,0.464c-0.338,0.422-0.27,1.037,0.151,1.375   C84.598,37.558,84.814,37.628,85.029,37.628z"/><path d="M77.156,43.661c0.287,0,0.571-0.126,0.765-0.367l0.372-0.465c0.337-0.422,0.268-1.037-0.153-1.375   c-0.423-0.337-1.038-0.269-1.375,0.153l-0.372,0.465c-0.337,0.422-0.268,1.037,0.153,1.375   C76.726,43.591,76.941,43.661,77.156,43.661z"/><path d="M51.045,34.322c0.287,0,0.571-0.126,0.764-0.367l0.372-0.465c0.338-0.422,0.269-1.037-0.152-1.375   c-0.421-0.337-1.037-0.269-1.375,0.152l-0.372,0.465c-0.338,0.422-0.269,1.037,0.152,1.375   C50.614,34.252,50.83,34.322,51.045,34.322z"/><path d="M67.864,34.554c0.287,0,0.571-0.126,0.764-0.367L69,33.723c0.338-0.422,0.269-1.037-0.152-1.375   c-0.422-0.337-1.037-0.269-1.375,0.152L67.1,32.965c-0.338,0.422-0.269,1.037,0.152,1.375   C67.433,34.484,67.649,34.554,67.864,34.554z"/><path d="M9.695,39.247h19.699c0.54,0,0.978-0.438,0.978-0.978s-0.438-0.978-0.978-0.978H9.695c-0.54,0-0.978,0.438-0.978,0.978   S9.155,39.247,9.695,39.247z"/><path d="M26.656,52.184c0-0.54-0.438-0.978-0.978-0.978H5.978C5.438,51.206,5,51.644,5,52.184s0.438,0.978,0.978,0.978h19.699   C26.218,53.162,26.656,52.724,26.656,52.184z"/><path d="M31.16,65.121H11.46c-0.54,0-0.978,0.438-0.978,0.978c0,0.54,0.438,0.978,0.978,0.978H31.16   c0.54,0,0.978-0.438,0.978-0.978C32.138,65.559,31.7,65.121,31.16,65.121z"/></g></svg>